<?xml version="1.0" encoding="UTF-8"?>
<svg width="220px" height="160px" viewBox="0 0 220 160" version="1.1" xmlns="http://www.w3.org/2000/svg" xmlns:xlink="http://www.w3.org/1999/xlink">
    <!-- Generator: Sketch 52.4 (67378) - http://www.bohemiancoding.com/sketch -->
    <title>集成设备指纹</title>
    <desc>Created with Sketch.</desc>
    <g id="集成设备指纹" stroke="none" stroke-width="1" fill="none" fill-rule="evenodd">
        <g id="设备指纹" transform="translate(4.000000, 7.000000)">
            <rect id="矩形" stroke="#E5E7EC" stroke-width="6" x="34" y="3" width="100" height="133" rx="4"></rect>
            <path d="M5.37793724,148 L47.254913,148 C48.5682115,148 49.6328502,149.064639 49.6328502,150.377937 L49.6328502,150.377937 C49.6328502,151.691236 48.5682115,152.755874 47.254913,152.755874 L5.37793724,152.755874 C4.06463877,152.755874 3,151.691236 3,150.377937 L3,150.377937 C3,149.064639 4.06463877,148 5.37793724,148 Z" id="Rectangle-16-Copy" fill="#E5E7EC"></path>
            <path d="M56.3779372,148 L56.3805169,148 C57.6938153,148 58.7584541,149.064639 58.7584541,150.377937 L58.7584541,150.377937 C58.7584541,151.691236 57.6938153,152.755874 56.3805169,152.755874 L56.3779372,152.755874 C55.0646388,152.755874 54,151.691236 54,150.377937 L54,150.377937 C54,149.064639 55.0646388,148 56.3779372,148 Z" id="Rectangle-16-Copy-2" fill="#E5E7EC"></path>
            <path d="M138.377937,148 L138.380517,148 C139.693815,148 140.758454,149.064639 140.758454,150.377937 L140.758454,150.377937 C140.758454,151.691236 139.693815,152.755874 138.380517,152.755874 L138.377937,152.755874 C137.064639,152.755874 136,151.691236 136,150.377937 L136,150.377937 C136,149.064639 137.064639,148 138.377937,148 Z" id="Rectangle-16-Copy-4" fill="#E5E7EC"></path>
            <path d="M172.377937,148 L172.380517,148 C173.693815,148 174.758454,149.064639 174.758454,150.377937 L174.758454,150.377937 C174.758454,151.691236 173.693815,152.755874 172.380517,152.755874 L172.377937,152.755874 C171.064639,152.755874 170,151.691236 170,150.377937 L170,150.377937 C170,149.064639 171.064639,148 172.377937,148 Z" id="Rectangle-16-Copy-6" fill="#E5E7EC"></path>
            <path d="M78.3779372,148 L127.86844,148 C129.181738,148 130.246377,149.064639 130.246377,150.377937 L130.246377,150.377937 C130.246377,151.691236 129.181738,152.755874 127.86844,152.755874 L78.3779372,152.755874 C77.0646388,152.755874 76,151.691236 76,150.377937 L76,150.377937 C76,149.064639 77.0646388,148 78.3779372,148 Z" id="Rectangle-16-Copy-3" fill="#E5E7EC"></path>
            <path d="M179.377937,148 L205.076169,148 C206.389468,148 207.454106,149.064639 207.454106,150.377937 L207.454106,150.377937 C207.454106,151.691236 206.389468,152.755874 205.076169,152.755874 L179.377937,152.755874 C178.064639,152.755874 177,151.691236 177,150.377937 L177,150.377937 C177,149.064639 178.064639,148 179.377937,148 Z" id="Rectangle-16-Copy-5" fill="#E5E7EC"></path>
            <g id="Group-5" transform="translate(151.000000, 10.208674)" fill="#E5E7EC">
                <path d="M10.9386295,0 L10.9386295,0 C12.0093049,-1.96679895e-16 12.8772589,0.86795397 12.8772589,1.93862945 L12.8772589,18.0360434 C12.8772589,19.1067189 12.0093049,19.9746729 10.9386295,19.9746729 L10.9386295,19.9746729 C9.86795397,19.9746729 9,19.1067189 9,18.0360434 L9,1.93862945 C9,0.86795397 9.86795397,1.96679895e-16 10.9386295,0 Z" id="Rectangle-23-Copy"></path>
                <path d="M10.9386295,0 L10.9386295,0 C12.0093049,-1.96679895e-16 12.8772589,0.86795397 12.8772589,1.93862945 L12.8772589,18.0360434 C12.8772589,19.1067189 12.0093049,19.9746729 10.9386295,19.9746729 L10.9386295,19.9746729 C9.86795397,19.9746729 9,19.1067189 9,18.0360434 L9,1.93862945 C9,0.86795397 9.86795397,1.96679895e-16 10.9386295,0 Z" id="Rectangle-23-Copy-2" transform="translate(10.938629, 9.987336) rotate(90.000000) translate(-10.938629, -9.987336) "></path>
            </g>
            <g id="Group-5-Copy-3" transform="translate(178.000000, 53.000000)" fill="#E5E7EC">
                <path d="M8.75090356,0 L8.75090356,0 C9.60744395,-1.57343916e-16 10.3018071,0.694363176 10.3018071,1.55090356 L10.3018071,14.4288347 C10.3018071,15.2853751 9.60744395,15.9797383 8.75090356,15.9797383 L8.75090356,15.9797383 C7.89436318,15.9797383 7.2,15.2853751 7.2,14.4288347 L7.2,1.55090356 C7.2,0.694363176 7.89436318,1.57343916e-16 8.75090356,0 Z" id="Rectangle-23-Copy"></path>
                <path d="M8.75090356,-1.77635684e-15 L8.75090356,-1.77635684e-15 C9.60744395,-1.93370076e-15 10.3018071,0.694363176 10.3018071,1.55090356 L10.3018071,14.4288347 C10.3018071,15.2853751 9.60744395,15.9797383 8.75090356,15.9797383 L8.75090356,15.9797383 C7.89436318,15.9797383 7.2,15.2853751 7.2,14.4288347 L7.2,1.55090356 C7.2,0.694363176 7.89436318,-1.61901292e-15 8.75090356,-1.77635684e-15 Z" id="Rectangle-23-Copy-2" transform="translate(8.750904, 7.989869) rotate(90.000000) translate(-8.750904, -7.989869) "></path>
            </g>
            <g id="Group-5-Copy" transform="translate(109.000000, 16.111111)" fill="#E5E7EC">
                <path d="M8.55731225,0 L8.55731225,0 C9.41739206,-1.57994098e-16 10.1146245,0.697232445 10.1146245,1.55731225 L10.1146245,14.612661 C10.1146245,15.4727408 9.41739206,16.1699733 8.55731225,16.1699733 L8.55731225,16.1699733 C7.69723244,16.1699733 7,15.4727408 7,14.612661 L7,1.55731225 C7,0.697232445 7.69723244,1.57994098e-16 8.55731225,0 Z" id="Rectangle-23-Copy"></path>
                <path d="M8.55731225,0 L8.55731225,0 C9.41739206,-1.57994098e-16 10.1146245,0.697232445 10.1146245,1.55731225 L10.1146245,14.612661 C10.1146245,15.4727408 9.41739206,16.1699733 8.55731225,16.1699733 L8.55731225,16.1699733 C7.69723244,16.1699733 7,15.4727408 7,14.612661 L7,1.55731225 C7,0.697232445 7.69723244,1.57994098e-16 8.55731225,0 Z" id="Rectangle-23-Copy-2" transform="translate(8.557312, 8.084987) rotate(90.000000) translate(-8.557312, -8.084987) "></path>
            </g>
            <ellipse id="Oval-6-Copy" stroke="#E5E7EC" stroke-width="4" cx="16.7584541" cy="114.755874" rx="4.75845411" ry="4.75587449"></ellipse>
            <ellipse id="Oval-6-Copy-2" stroke="#E5E7EC" stroke-width="4" cx="148.00217" cy="57" rx="4.00216963" ry="4"></ellipse>
            <g id="Group-9" transform="translate(127.000000, 81.777778) rotate(45.000000) translate(-127.000000, -81.777778) translate(94.777778, 49.555556)"></g>
            <path d="M2.37793724,136 L208.897425,136 C210.210724,136 211.275362,137.064639 211.275362,138.377937 L211.275362,138.377937 C211.275362,139.691236 210.210724,140.755874 208.897425,140.755874 L2.37793724,140.755874 C1.06463877,140.755874 1.84901944e-13,139.691236 1.84741111e-13,138.377937 L1.84741111e-13,138.377937 C1.84580279e-13,137.064639 1.06463877,136 2.37793724,136 Z" id="Rectangle-16" fill="#E5E7EC"></path>
            <polygon id="路径-7" fill="#F9FAFC" points="37 135.947841 131.144531 135.947841 131.144531 5 37 5"></polygon>
            <g id="指纹解锁" transform="translate(47.000000, 36.000000)" fill="#E5E7EC">
                <rect id="矩形" opacity="0" x="0" y="0" width="75" height="75"></rect>
                <path d="M35.9533448,66.7365598 C35.1259666,66.4366203 34.3738046,66.7365598 33.9977236,67.6363786 L31.9668861,72.5853819 C31.5155889,73.5601857 32.2677509,74.6099742 33.0951291,74.6099742 C33.9977236,74.6099742 34.4490208,74.3100346 34.7498856,73.6351705 C35.5020476,72.0604876 36.1789934,70.4108198 36.7807231,68.7611521 C37.0815879,67.8613333 36.7055069,67.0364994 35.9533448,66.7365598 Z M70.1015009,48.2152898 C70.0262846,47.315471 69.3493388,46.7155919 68.4467444,46.7905768 C67.6193661,46.8655617 67.0928527,47.4654408 67.0928528,48.3652597 C67.168069,50.8397613 67.0176366,53.2392781 66.9424203,55.7137797 C66.9424203,56.8385532 67.4689338,57.4384324 68.3715282,57.5134173 C69.2741226,57.5134173 69.9510684,56.9135382 69.9510684,55.7887646 C69.9510684,54.1390968 70.176717,52.4144442 70.1015009,50.8397613 C70.1767171,49.7899728 70.1767171,49.0401238 70.1015009,48.2152898 Z M19.7066451,57.6633871 C18.8792669,57.4384324 18.1271049,57.8883417 17.82624,58.7131757 C17.6758076,59.0881002 17.6005914,59.5380096 17.450159,59.9129341 C16.7732132,61.9375264 15.9458349,63.8121488 15.0432406,65.6867713 C14.5167271,66.8115447 15.1184568,67.9363182 16.3219159,67.9363182 C16.9988618,68.0113031 17.450159,67.5613937 17.7510238,66.9615145 C18.9544831,64.5619977 20.0075099,62.087496 20.6844557,59.5380095 C20.9101043,58.7131756 20.5340233,57.8883417 19.7066451,57.6633871 Z M44.6032082,54.2140817 C43.7758299,54.1390968 43.0988841,54.6639912 42.9484517,55.56381 C42.4219382,59.3130549 41.6697762,62.9873149 40.6167494,66.58659 C40.0150198,68.6861672 39.2628577,70.7857443 38.5106958,72.8853215 C38.209831,73.6351705 38.4354796,74.3850195 39.1124254,74.759944 C39.7893712,75.1348686 40.3911008,75.0598836 40.9176142,74.6099742 C41.218479,74.3100346 41.3689114,73.9351101 41.5193439,73.4852007 C42.4219383,71.085684 43.2493165,68.7611521 43.8510461,66.2866504 C44.7536406,62.91233 45.5058026,59.4630246 45.9570998,55.8637495 C45.9570998,55.0389156 45.4305864,54.2890667 44.6032082,54.2140817 Z M4.36253976,27.9693672 C4.66340456,26.9945635 4.21210733,26.1697296 3.30951295,25.8697901 C2.48213471,25.6448354 1.72997269,26.1697296 1.42910782,27.0695485 C0.451297227,30.5188538 0,33.9681591 0,37.717404 C0,38.7671926 0,40.1169208 0.150432433,41.3916641 C0.451297227,44.0911204 0.977810671,46.7155919 1.88040505,49.3400634 C2.10605363,49.9399425 2.48213464,50.3148671 3.15908052,50.314867 C4.43775598,50.3898519 5.03948557,49.4150482 4.66340456,48.0653201 C2.55735085,41.3916641 2.40691849,34.7180081 4.36253976,27.9693672 Z M40.2406684,49.1151086 C40.3158846,47.6903956 40.1654522,46.0407278 40.0150198,44.3160751 C39.7893712,41.9165583 39.4885064,39.5920265 38.9619929,37.2674947 C38.7363443,36.3676759 37.9841823,35.9177665 37.2320203,36.0677363 C36.3294259,36.292691 35.8781286,37.04254 36.1037773,37.9423588 C36.7055069,40.7917849 37.0815879,43.7161959 37.2320203,46.7155919 C37.4576689,51.814565 37.0815879,56.9135381 35.8029125,61.8625415 C35.5772639,62.8373452 35.9533449,63.662179 36.7807231,63.8871337 C37.6833175,64.1120883 38.4354796,63.5871941 38.7363443,62.5374055 C39.7893712,58.1882814 40.3158846,53.8391573 40.2406684,49.1151086 Z M56.036071,31.3436877 C55.7352062,30.5188538 54.9830442,30.1439293 54.1556659,30.368884 C53.3282877,30.5938386 52.9522067,31.3436877 53.1778552,32.2435064 C54.3813145,36.7426003 54.8326117,41.3916641 55.1334765,46.1157127 C55.5095575,53.8391573 54.6821793,61.3376471 52.726558,68.836137 C52.5009094,69.8109407 52.8769904,70.7107595 53.7043687,70.8607292 C54.6821794,71.0856839 55.4343414,70.6357746 55.65999,69.585986 C57.3147464,63.1372848 58.292557,56.5386136 58.2173408,49.6400029 C58.292557,45.4408486 57.916476,41.0167396 57.2395302,36.6676155 C56.9386654,34.792993 56.6378006,32.9933554 56.036071,31.3436877 Z M6.54380961,22.2705149 C7.97291743,19.3461038 9.85332256,16.6466475 12.1098086,14.2471308 C18.8040507,7.12356539 27.0026167,3.37432042 36.8559393,3.07438084 C37.9841823,3.07438084 38.6611281,2.47450168 38.6611281,1.49969796 C38.6611281,0.524894243 37.9841823,0 36.7807231,0 C30.6129945,0.149969826 24.7461307,1.64966779 19.3305641,4.64906371 C12.5611058,8.39830862 7.44640406,13.7972214 3.91124254,20.695832 C3.7608101,21.0707565 3.61037774,21.3706961 3.61037774,21.7456206 C3.53516153,22.3454998 3.83602632,22.7954092 4.36253976,23.0953488 C5.189918,23.5452582 6.09251245,23.2453186 6.54380961,22.2705149 Z M27.3034815,40.2668906 C26.7017519,36.6676155 27.1530491,33.4432648 29.6351838,30.5938387 C29.7856162,30.368884 29.9360486,30.1439293 29.9360487,29.9189746 C30.0112649,29.1691256 29.8608325,28.5692463 29.1086704,28.2693068 C28.3565084,27.8943823 27.7547788,28.119337 27.2282653,28.7192162 C24.520482,31.8685819 23.5426714,35.542842 24.144401,39.6670114 C24.6709145,42.891362 24.9717793,46.0407278 25.0469955,49.1151086 C25.0469955,52.3394593 24.8213469,55.4138401 24.144401,58.3382512 C23.392239,61.9375264 22.0383473,65.3118468 20.3835909,68.6111823 C20.1579423,68.9861068 19.9322937,69.4360162 20.0075099,69.8859256 C20.1579423,70.5607897 20.4588071,71.0106991 21.1357529,71.1606689 C21.9631312,71.3106387 22.4896446,71.0106991 22.9409418,70.2608501 C25.272644,65.7617562 26.9274005,61.0377076 27.6043463,55.9387344 C28.2812921,50.6897915 28.2060759,45.4408486 27.3034815,40.2668906 Z M9.77810634,44.4660449 C9.2515929,41.0917245 8.80029567,37.7923889 9.2515929,34.3430836 C9.70289012,30.0689444 11.1319979,26.0947447 13.3884841,22.4204847 C15.4193216,19.1211492 18.0518886,16.4216928 21.2109692,14.1721459 C21.9631312,13.6472516 22.1887798,12.9723875 21.9631312,12.2975234 C21.5870502,11.2477349 20.5340233,11.0227801 19.4809965,11.6976442 C17.074078,13.347312 14.9680243,15.2969193 13.1628354,17.5464663 C8.64986331,23.0953488 6.31816096,29.4690651 6.09251238,36.6676155 C5.94207995,40.3418755 6.91989062,43.9411506 7.14553927,47.5404258 C7.2959717,49.9399425 7.37118784,52.3394593 6.61902582,54.7389761 C6.39337725,55.488825 6.1677286,56.3136589 5.94208002,56.9135381 C5.94208002,57.8883418 6.54380961,58.5632059 7.44640406,58.5632059 C8.34899852,58.5632059 8.72507953,58.0383116 9.02594432,57.2884626 C10.6054846,53.1642932 10.379836,48.8151691 9.77810634,44.4660449 Z M74.5392568,31.2687028 C71.5306087,16.271723 62.730313,6.37371641 48.1383697,1.57468288 C46.5588294,1.04978856 44.9040729,0.674864068 43.1741003,0.524894316 C42.2715059,0.449909403 41.6697763,0.899818807 41.5945601,1.7246527 C41.4441276,2.62447151 41.8954249,3.29933558 42.7980193,3.44930533 C43.0988841,3.52429024 43.3997489,3.52429024 43.6253976,3.59927515 C51.2974502,5.0239882 57.7660437,8.62326336 63.0311778,14.3971005 C65.9646097,17.6214512 68.2210958,21.2207264 69.7254198,25.2699108 C71.0793115,28.869186 71.8314735,32.6184309 71.9819059,36.4426608 C72.0571221,37.5674343 72.8845004,38.2422983 73.9375272,37.9423588 C74.6896892,37.7174041 75.0657702,37.1175249 74.990554,35.9177665 C74.990554,34.4180685 74.9153378,32.8433856 74.5392568,31.2687028 Z M54.6821793,18.6712398 C53.1778552,17.3215116 51.598315,16.1217532 49.7931262,15.2219344 C48.9657479,14.772025 48.1383697,15.0719646 47.7622887,15.7468288 C47.3109914,16.4966777 47.5366401,17.3215116 48.3640183,17.8464059 C48.5144507,17.9963757 48.7400993,18.0713605 48.8905317,18.1463455 C53.9300173,21.2207264 57.4651788,25.4948656 59.1199353,31.1937179 C60.6242593,36.6676155 61.0003403,42.2914829 61.1507727,47.9153502 C61.3012052,53.239278 60.9251242,58.5632059 60.0225297,63.8121488 C59.8720973,64.9369223 60.3233945,65.6117864 61.225989,65.7617562 C62.2037996,65.911726 62.8807454,65.3868317 63.0311778,64.2620582 C63.7833398,59.6129944 64.234637,54.8889458 64.1594208,50.8397613 C64.1594208,44.7659846 63.7081236,39.4420567 62.8807454,34.1931138 C61.9029347,28.0443521 59.2703676,22.8703941 54.6821793,18.6712398 Z M42.1962897,24.8200014 C39.1876416,23.695228 36.1789934,23.7702129 33.0951291,24.7450166 C31.8164537,25.1199411 31.4403726,26.4696693 32.267751,27.2945031 C32.8694805,27.8943823 33.4712102,27.8193974 34.148156,27.5944427 C40.3911008,25.5698505 46.6340456,29.3190954 47.8375049,35.6928118 C48.3640183,38.4672531 48.7400993,41.2416943 48.9657479,44.0161355 C49.3418289,48.0653201 49.2666127,52.1894895 48.8905317,56.238674 C48.3640183,61.487617 47.160559,66.58659 45.5058026,71.6105783 C45.4305864,71.9105179 45.280154,72.1354726 45.3553702,72.4354121 C45.5058026,73.1102762 45.8818836,73.6351705 46.7092619,73.7101554 C47.5366401,73.7851403 48.0631535,73.4102158 48.3640183,72.5853819 C50.9213691,65.161877 52.2752608,57.5884022 52.2752608,50.0149274 C52.2752608,45.0659241 51.8239636,40.4168604 50.9965854,35.7677967 C50.0187747,30.4438689 47.1605591,26.6946239 42.1962897,24.8200014 Z M21.3614015,33.9681591 C23.0913742,25.4948656 32.0421023,19.5710586 40.6167494,21.2957112 C44.5279919,22.1205451 47.7622887,23.9951675 50.3196395,26.9945635 C50.5452881,27.2945031 50.846153,27.5944427 51.1470178,27.8193974 C51.7487473,28.119337 52.5009094,27.8943823 52.9522067,27.369488 C53.4787201,26.694624 53.4035039,26.0197598 52.8017742,25.1949259 C49.3418289,20.9957716 44.9040729,18.5212699 39.4132902,18.0713606 C32.4181833,17.4714815 26.6265357,19.9459831 22.1887798,25.4198807 C18.7288344,29.6940199 17.450159,34.7180081 18.202321,40.1169208 C18.578402,42.6664073 19.0296992,45.140909 19.0296992,47.6903956 C19.0296992,49.4900331 19.0296992,51.2896707 18.8792669,53.0143234 C18.8040507,53.8391573 19.4057803,54.5140213 20.2331585,54.5890062 C21.0605367,54.6639912 21.8126987,54.1390968 21.887915,53.3142629 C22.1887798,50.0149274 22.1887798,46.7155919 21.8126987,43.4162564 C21.5870502,41.3916641 20.9101043,39.4420567 21.0605367,37.5674343 C21.0605367,36.292691 21.1357529,35.1679175 21.3614015,33.9681591 Z M68.3715282,43.7911809 C69.1989064,43.7911809 69.800636,43.0413319 69.8006361,42.1415131 L69.8006361,41.6166187 C69.4997713,38.7671926 69.1989065,35.9177665 68.7476092,33.0683403 C67.7697985,26.7696088 65.2876639,21.2207263 61.0003403,16.5716626 C54.7573955,9.59806708 46.8596942,6.14876175 37.4576689,6.07377676 C33.2455616,6.07377676 29.1838866,6.89861066 25.272644,8.54827844 C24.3700496,8.92320293 23.9939686,9.74803683 24.2948335,10.5728707 C24.6709145,11.3977046 25.4982927,11.6976442 26.4008872,11.3227197 C30.8386431,9.52308216 35.4268315,8.77323318 40.1654522,9.22314251 C46.7092618,9.82302167 52.2752608,12.4474932 57.0138816,16.8716022 C61.9781509,21.5956508 64.8363666,27.369488 65.8141773,34.1931138 C66.1902583,36.8925701 66.4911231,39.5920265 66.7167718,42.2914829 C66.9424203,43.1913017 67.54415,43.7911809 68.3715282,43.7911809 Z M33.2455616,38.9171624 C33.0951291,38.0173436 32.9446968,37.1175249 33.2455616,36.2177061 C33.8472911,34.1931138 35.65248,32.9183705 37.9089661,33.0683403 C39.9398036,33.1433252 41.5945601,34.6430232 42.0458573,36.8925702 C42.8732355,41.0917245 43.2493165,45.3658637 43.3245327,49.6400029 C43.3245327,50.6148067 43.9262623,51.2896707 44.8288568,51.2896707 C45.7314513,51.2896707 46.2579646,50.6148067 46.3331808,49.7149879 L46.3331808,48.3652597 L46.408397,48.3652597 C46.2579646,46.4156523 46.1827484,44.4660449 45.9570998,42.5164376 C45.7314513,40.5668302 45.4305864,38.6172228 45.1297216,36.6676155 C44.527992,32.5434461 40.9176143,29.619035 36.6302906,30.0689444 C32.7190481,30.5188538 29.5599676,34.4180685 30.1616973,38.2422983 C30.462562,40.5668302 30.8386431,42.891362 31.0642917,45.2158939 C31.5155889,51.7395801 30.9138593,58.1132965 28.8078056,64.3370431 C27.9804273,66.6615749 27.0778329,68.9111219 25.9495899,71.085684 C25.6487251,71.6105783 25.6487251,72.2104574 26.0248061,72.7353518 C26.4008872,73.2602461 26.8521844,73.4102158 27.453914,73.3352309 C28.1308598,73.260246 28.5069408,72.8103366 28.8078056,72.2104574 C33.9977236,61.6375867 35.2011828,50.5398218 33.2455616,38.9171624 Z M15.5697539,43.0413319 C15.1936729,40.4918453 14.8175919,37.8673738 15.0432406,35.3178873 C15.7201864,29.2441106 18.3527535,24.2201223 23.016158,20.3209076 C26.9274005,17.021572 31.4403726,15.3719043 36.5550745,15.1469495 C38.6611282,15.0719646 40.6919656,15.2219344 42.7228031,15.7468288 C43.0236679,15.8218137 43.3245327,15.8967986 43.6253976,15.8218136 C44.3775596,15.6718438 44.7536406,15.2219344 44.8288568,14.4720855 C44.904073,13.7222365 44.4527758,13.1223572 43.7006137,12.8974026 C41.6697762,12.3725083 39.5637226,12.0725687 37.3824527,12.1475536 C35.8781287,12.0725687 34.2985884,12.2225385 32.7190481,12.597463 C25.1222116,14.0221761 19.330564,18.1463455 15.3441053,24.8200014 C12.4858896,29.6940199 11.508079,34.9429628 12.1850248,40.4918453 C12.4106734,42.5914225 12.8619706,44.6160147 13.0124031,46.7155919 C13.3132679,51.8895499 12.6363221,56.9135381 10.3046198,61.5626018 C10.1541873,61.8625414 10.003755,62.162481 10.0789711,62.5374055 C10.2294036,63.2872545 10.6054846,63.7371639 11.3576466,63.8121488 C12.1098086,63.8871337 12.6363221,63.5122092 13.0124031,62.8373451 C16.1714836,56.6135985 16.6227808,49.8649576 15.5697539,43.0413319 Z" id="形状" fill-rule="nonzero"></path>
            </g>
            <path d="M134,75 L167.342743,75 C174.901357,75 178.680664,77.8850575 178.680664,83.6551724 C178.680664,89.4252874 174.901357,92.3103448 167.342743,92.3103448 L134,92.3103448 L134,115 L167.911133,115" id="路径-22" stroke="#E5E7EC" stroke-width="5"></path>
            <g id="分组-2" transform="translate(167.000000, 101.000000)">
                <path d="M18,24 L18,5 L8,5 C4.6862915,5 2,7.6862915 2,11 L2,18 C2,21.3137085 4.6862915,24 8,24 L18,24 Z" id="合并形状" stroke="#E5E7EC" stroke-width="4"></path>
                <g id="分组" transform="translate(16.000000, 7.000000)" fill="#E5E7EC">
                    <g id="分组-5">
                        <rect id="矩形" x="0" y="0" width="16" height="5" rx="2.5"></rect>
                        <rect id="矩形-copy" x="0" y="11" width="16" height="5" rx="2.5"></rect>
                    </g>
                </g>
                <rect id="矩形" fill="#E5E7EC" x="15" y="0" width="5" height="29" rx="2.5"></rect>
            </g>
        </g>
    </g>
</svg>